# xmcd
#
# Track frame offsets: 
#        150
#        21598
#        42857
#        57105
#        82388
#        104210
#        132582
#        156881
#        184156
#        197749
#        218696
#
# Disc length: 3175 seconds
#
# Revision: 0
# Processed by: cddbd v1.5.2PL0 Copyright (c) Steve Scherf et al.
# Submitted via: ExactAudioCopy v1.2
#
DISCID=a80c650b
DTITLE=Reuben Augustine - Let It Heal
DYEAR=1900
DGENRE=Blues
TTITLE0=Seven
TTITLE1=A River
TTITLE2=Ain't Nothing Like
TTITLE3=Angola Free
TTITLE4=Kooky Kooky Baby
TTITLE5=Medicine Man
TTITLE6=Amy's Guitar
TTITLE7=Let It Heal
TTITLE8=Birdie Loves Reggae
TTITLE9=Jubilee
TTITLE10=Roses
EXTD=
EXTT0=
EXTT1=
EXTT2=
EXTT3=
EXTT4=
EXTT5=
EXTT6=
EXTT7=
EXTT8=
EXTT9=
EXTT10=
PLAYORDER=
